<?xml version="1.0" encoding="utf-8"?>
<!-- Generator: Adobe Illustrator 28.0.0, SVG Export Plug-In . SVG Version: 6.00 Build 0)  -->
<svg version="1.1" id="logo" xmlns="http://www.w3.org/2000/svg" xmlns:xlink="http://www.w3.org/1999/xlink" x="0px" y="0px"
	 viewBox="0 0 324 324" style="enable-background:new 0 0 324 324;" xml:space="preserve">
<style type="text/css">
	.st0{fill-rule:evenodd;clip-rule:evenodd;fill:none;}
	.st1{fill-rule:evenodd;clip-rule:evenodd;fill:#FFFFFF;}
	.st2{fill:#FFFFFF;}
</style>
<path class="st0" d="M-167-342c0.67,0,1.33,0,2,0C-165.67-342-166.33-342-167-342z"/>
<path class="st0" d="M-206-279c0.33,0.67,0.67,1.33,1,2c-0.67,0-1.33,0-2,0C-206.67-277.67-206.33-278.33-206-279z"/>
<path class="st0" d="M-328,341c1.98,1.64,2.33,4.69,0,9C-328,347-328,344-328,341z"/>
<path class="st0" d="M566,395c0.33,1,0.67,2,1,3c-0.33,0-0.67,0-1,0C566,397,566,396,566,395z"/>
<path class="st0" d="M570,403c0.33,0.67,0.67,1.33,1,2C570.67,404.33,570.33,403.67,570,403z"/>
<path class="st0" d="M-326,406c0.33,0.67,0.67,1.33,1,2C-325.33,407.33-325.67,406.67-326,406z"/>
<path class="st0" d="M571,406c0.33,0.67,0.67,1.33,1,2C571.67,407.33,571.33,406.67,571,406z"/>
<path class="st0" d="M573,414c1,3,2,6,3,9C573.43,420.73,573.19,418.82,573,414z"/>
<path class="st0" d="M577,432c0.67,0,1.33,0,2,0C578.33,432,577.67,432,577,432z"/>
<path class="st0" d="M578,436c2.04,1.8,0.71,0.02,2,3c-0.67,0-1.33,0-2,0C578,438,578,437,578,436z"/>
<path class="st0" d="M580,442c0.33,0.67,0.67,1.33,1,2C580.67,443.33,580.33,442.67,580,442z"/>
<path class="st0" d="M581,447c1,0.33,2,0.67,3,1c0,1,0,2,0,3C583,449.67,582,448.33,581,447z"/>
<path class="st0" d="M-349,463c0.33,0.67,0.67,1.33,1,2C-348.33,464.33-348.67,463.67-349,463z"/>
<path class="st0" d="M-346,471c0.33,0.67,0.67,1.33,1,2C-345.33,472.33-345.67,471.67-346,471z"/>
<path class="st0" d="M-325,534c0.33,0.67,0.67,1.33,1,2C-324.33,535.33-324.67,534.67-325,534z"/>
<path class="st0" d="M-323,539c0.33,0.67,0.67,1.33,1,2C-322.33,540.33-322.67,539.67-323,539z"/>
<path class="st0" d="M576,554c0.33,0.67,0.67,1.33,1,2C576.67,555.33,576.33,554.67,576,554z"/>
<path class="st0" d="M577,559c0.33,0.67,0.67,1.33,1,2C577.67,560.33,577.33,559.67,577,559z"/>
<path class="st0" d="M359,599c0.33,0.67,0.67,1.33,1,2C359.67,600.33,359.33,599.67,359,599z"/>
<path class="st0" d="M553,628c0.33,1,0.67,2,1,3c-0.33,0-0.67,0-1,0c-0.33-0.33-0.67-0.67-1-1C552.33,629.33,552.67,628.67,553,628z
	"/>
<path class="st0" d="M550,639c0.67,1.33,1.33,2.67,2,4c-0.33,0-0.67,0-1,0C550.67,641.67,550.33,640.33,550,639z"/>
<path class="st0" d="M584,640c0.33,0.67,0.67,1.33,1,2C584.67,641.33,584.33,640.67,584,640z"/>
<path class="st0" d="M544,650c0.33,0.67,0.67,1.33,1,2C544.67,651.33,544.33,650.67,544,650z"/>
<path class="st0" d="M579,652c0.33,0.67,0.67,1.33,1,2C579.67,653.33,579.33,652.67,579,652z"/>
<path class="st0" d="M304,655c0.67,0.33,1.33,0.67,2,1c-2,1-4,2-6,3c-0.33-0.33-0.67-0.67-1-1C300.67,657,302.33,656,304,655z"/>
<path class="st0" d="M364,824c0.67,0.67,1.33,1.33,2,2c-0.33,0.33-0.67,0.67-1,1c-0.67-0.33-1.33-0.67-2-1c0-0.33,0-0.67,0-1
	C363.33,824.67,363.67,824.33,364,824z"/>
<path class="st0" d="M38,867c0.67,0,1.33,0,2,0c-0.67,1.33-1.33,2.67-2,4C38,869.67,38,868.33,38,867z"/>
<path class="st0" d="M192,872c2,1.33,4,2.67,6,4c0,1.33,0,2.67,0,4c-3,0.33-6,0.67-9,1c-0.67-0.67-1.33-1.33-2-2
	C190.23,876.2,190.77,877.41,192,872z"/>
<path class="st0" d="M211,874c4.33,0.67,8.67,1.33,13,2c0,0.33,0,0.67,0,1c-8,1-16,2-24,3c2.36-4.69,1.39-3.51,7-3
	C208.38,875.32,209.29,875.25,211,874z"/>
<path class="st0" d="M225,874c1.67,0,3.33,0,5,0c-0.33,1-0.67,2-1,3c-0.33,0-0.67,0-1,0C227,876,226,875,225,874z"/>
<path class="st0" d="M231,874c0.67,0,1.33,0,2,0C232.33,874,231.67,874,231,874z"/>
<path class="st0" d="M152,875c8.91,1.06,14.24-1.84,18,5c0,0.33,0,0.67,0,1c-0.33,0-0.67,0-1,0C159.36,878.7,158.11,882.31,152,875z
	"/>
<path class="st0" d="M179,875c4.63,2.76,6.75,3.56,2,6c-2.82-2.03-4.28,0.5-9-1c0.67,0,1.33,0,2,0
	C175.67,878.33,177.33,876.67,179,875z"/>
<path class="st0" d="M206,882c2.04,1.8,0.71,0.02,2,3c-0.33,0-0.67,0-1,0c-0.67-0.33-1.33-0.67-2-1
	C205.33,883.33,205.67,882.67,206,882z"/>
<g>
	<g>
		<g>
			<path class="st1" d="M74.35,41.37c-0.52-4.76-2.72-9.18-4.01-13.8C67.83,18.6,68.9,8.73,73.25,0.46C73.33,0.31,73.41,0.15,73.5,0
				c-6.9,6.68-11.79,16.25-9.91,25.57c1.19,5.89,4.91,11.02,6.51,16.82c1.18,4.25,0.47,8.26,0.49,12.44
				C73.96,51.84,74.81,45.66,74.35,41.37z"/>
		</g>
		<g>
			<path class="st1" d="M51.93,70.1c-0.39-3.59-2.05-6.92-3.03-10.41c-1.89-6.77-1.09-14.22,2.2-20.45
				c0.06-0.12,0.12-0.23,0.19-0.35c-5.21,5.04-8.89,12.26-7.48,19.29c0.9,4.45,3.7,8.32,4.91,12.69c0.89,3.21,0.36,6.23,0.37,9.39
				C51.64,78.01,52.28,73.34,51.93,70.1z"/>
		</g>
		<g>
			<path class="st1" d="M105.55,55.76c-0.57-3.9-2.97-7.52-4.38-11.3c-2.74-7.35-1.57-15.44,3.19-22.21
				c0.09-0.13,0.18-0.25,0.27-0.38c-7.55,5.48-12.88,13.31-10.83,20.95c1.3,4.83,5.36,9.03,7.11,13.78
				c1.28,3.48,0.52,6.77,0.53,10.2C105.12,64.34,106.06,59.27,105.55,55.76z"/>
		</g>
		<g>
			<path class="st1" d="M45.94,46.34c0.18,0,0.36,0,0.54,0C46.31,46.34,46.13,46.34,45.94,46.34z"/>
		</g>
		<g>
			<path class="st1" d="M69.8,59.05c0.09,0.18,0.18,0.35,0.27,0.53C69.99,59.4,69.89,59.23,69.8,59.05z"/>
		</g>
		<g>
			<path class="st1" d="M283.85,204.83c-9.28-57.72-86.66-86.66-131.03-46c-6.63,4.82-15.94,19.5-24.38,18.65
				c-9.6-5.91-0.51-18.54-0.44-27.22c-1.42-20.02-16.31-28.96-2.8-52.33c-1.45-0.46-2.93-0.57-4.37-0.4
				c-5.59,0.65-10.72,5.52-12.32,11.07c-4.06,14.45,8.18,28.01,7.28,42.37c-0.66,10.59-8.06,22.11-1.91,30.87
				c-6.53,1.33-11.82-5.98-11.94-12.49c-0.12-6.51,2.83-12.72,3.35-19.22c1.28-15.73-12.62-32.52-3.93-47.67
				c-5.52-3.18-13.06,1.04-15.28,6.91c-4.48,12.38,6.61,24.02,6.94,36.22c0.32,11.91-10.13,25.66-1.59,36.57
				c-3.36,3.16-9.53,1.17-11.75-2.85c-4.55-8.75,3.29-17.6,5.04-26.07c3.33-16.45-13.66-33.4-6.89-48.81
				c-5.31-2.69-12.11,1.66-13.87,7.24c-3.53,11.7,7.31,22.22,7.41,33.7c0.12,11.8-10.67,22.94-6.88,34.14
				c-3.98,1.91-9.01-1.2-10.42-5.31c-2.85-8.71,4.93-16.46,6.2-24.75c2.13-13.5-12.97-28.05-4.43-40.97
				c-2.8-3.44-8.81-2.85-11.88,0.37c-6.44,7.16-1.49,17.16,0.92,25.03c3.53,12.4,1.16,26.28-6.3,36.88
				c-11.91-3.57-21.87-12.85-26.09-24.31c5.27,81.69,51.02,177.91,147.3,176.35c-76.72,0.62-128.16-74.81-131.4-144.3
				c35.6,13.81,77.06,12.44,111.62-3.69c-22.5,38.19,5.35,94.36,52.83,90.72c54.09-6.3,62.77-86.45,7.85-87.59
				c-22.42-0.47-40.44,32.27-18.52,47.88c9.63,5.73,24.73,0.42,26.69-10.42c-14.4,16.95-36.72-3.8-23.68-20.81
				c11.96-14.59,35.75-6.65,42.21,9.34c15.18,34.26-24.36,65.37-57.31,50.01c-41.03-17.74-37.86-77.28-1.05-98.11
				c112.87-51.75,168.07,127.59,14.72,166.25C241.45,315.56,295.44,263.87,283.85,204.83z"/>
		</g>
		<g>
			<path class="st1" d="M214.59,98.77c0.18,0,0.36,0,0.54,0C214.95,98.77,214.77,98.77,214.59,98.77z"/>
		</g>
		<g>
			<path class="st1" d="M229.5,142.46c0.27,0,0.54,0,0.81,0C230.04,142.46,229.77,142.46,229.5,142.46z"/>
		</g>
		<g>
			<path class="st1" d="M221.64,149.08c0.18,0,0.36,0,0.54,0C222,149.08,221.82,149.08,221.64,149.08z"/>
		</g>
		<g>
			<path class="st1" d="M187.48,181.12c0.09,0.18,0.18,0.35,0.27,0.53C187.66,181.47,187.57,181.29,187.48,181.12z"/>
		</g>
		<g>
			<path class="st1" d="M215.13,181.91c0.09,0.18,0.18,0.35,0.27,0.53C215.31,182.26,215.22,182.09,215.13,181.91z"/>
		</g>
		<g>
			<path class="st1" d="M41.06,182.97c0.27,0.18,0.54,0.35,0.81,0.53C41.61,183.32,41.34,183.15,41.06,182.97z"/>
		</g>
		<g>
			<path class="st1" d="M43.78,183.76c0.18,0.18,0.36,0.35,0.54,0.53C44.14,184.12,43.96,183.94,43.78,183.76z"/>
		</g>
		<g>
			<path class="st1" d="M121.59,183.76c0.09,0.18,0.18,0.35,0.27,0.53C121.77,184.12,121.68,183.94,121.59,183.76z"/>
		</g>
		<g>
			<path class="st1" d="M45.94,184.82c0.18,0,0.36,0,0.54,0C46.31,184.82,46.13,184.82,45.94,184.82z"/>
		</g>
		<g>
			<path class="st1" d="M135.42,184.82c0.18,0,0.36,0,0.54,0C135.78,184.82,135.6,184.82,135.42,184.82z"/>
		</g>
		<g>
			<path class="st1" d="M180.97,185.09c0.18,0,0.36,0,0.54,0C181.33,185.09,181.15,185.09,180.97,185.09z"/>
		</g>
		<g>
			<path class="st1" d="M83.36,187.21c-0.09,0.18-0.18,0.35-0.27,0.53c0.36-0.09,0.72-0.18,1.08-0.26c0-0.09,0-0.18,0-0.26
				C83.9,187.21,83.63,187.21,83.36,187.21z"/>
		</g>
		<g>
			<path class="st1" d="M86.89,187.21c0.49,0.53-0.01,0.2,0.81,0.53c0-0.09,0-0.18,0-0.26C87.43,187.38,87.16,187.3,86.89,187.21z"
				/>
		</g>
		<g>
			<path class="st1" d="M85.8,187.47c0.18,0,0.36,0,0.54,0C86.16,187.47,85.98,187.47,85.8,187.47z"/>
		</g>
		<g>
			<path class="st1" d="M67.64,188c0.18,0,0.36,0,0.54,0C68,188,67.82,188,67.64,188z"/>
		</g>
		<g>
			<path class="st1" d="M96.1,188c0.09,0.18,0.18,0.35,0.27,0.53C96.28,188.35,96.19,188.18,96.1,188z"/>
		</g>
		<g>
			<path class="st1" d="M191.81,189.85c0.18,0,0.36,0,0.54,0C192.18,189.85,191.99,189.85,191.81,189.85z"/>
		</g>
		<g>
			<path class="st1" d="M190.19,190.91c0.09,0.18,0.18,0.35,0.27,0.53C190.37,191.27,190.28,191.09,190.19,190.91z"/>
		</g>
		<g>
			<path class="st1" d="M141.11,212.1c0.09,0.18,0.18,0.35,0.27,0.53C141.29,212.45,141.2,212.27,141.11,212.1z"/>
		</g>
		<g>
			<path class="st1" d="M35.37,215.54c0.18,0,0.36,0,0.54,0C35.73,215.54,35.55,215.54,35.37,215.54z"/>
		</g>
		<path class="st2" d="M123.33,317.16c27.98,7.39,58.76,7.27,85.91-3.13c3.88-1.44,7.61-3.22,11.29-5.07l1.15,2.12
			c-22.54,11.58-48.83,14.83-73.92,11.89c-8.36-0.99-16.65-2.54-24.69-5.07L123.33,317.16L123.33,317.16z"/>
	</g>
	<path class="st2" d="M3.69,100.68l303.06-63.22c10.36-1.77,13.67,12.63,3.34,15.25c0.03,0.01-304.5,56.96-304.53,56.97
		C-0.37,110.64-2.41,102.2,3.69,100.68L3.69,100.68z"/>
	<path class="st2" d="M130.51,101.19l184.25-28.65c4.35-0.68,8.45,2.22,9.14,6.47c0.69,4.25-2.28,8.25-6.63,8.93
		c0.02,0.04-185.37,22.3-185.45,22.33C125.8,110.83,124.45,102.35,130.51,101.19L130.51,101.19z"/>
	<path class="st2" d="M8.38,118.03l23.18-3.85c6.63-0.81,8.19,9.06,1.61,10.27c-0.14,0.02-23.32,2.65-23.47,2.67
		C3.6,127.69,2.36,119.13,8.38,118.03L8.38,118.03z"/>
</g>
</svg>
