<?xml version="1.0" encoding="utf-8"?>
<!-- Generator: Adobe Illustrator 28.0.0, SVG Export Plug-In . SVG Version: 6.00 Build 0)  -->
<svg version="1.1" id="logo" xmlns="http://www.w3.org/2000/svg" xmlns:xlink="http://www.w3.org/1999/xlink" x="0px" y="0px"
	 viewBox="0 0 324 324" style="enable-background:new 0 0 324 324;" xml:space="preserve">
<style type="text/css">
	.st0{fill:none;}
	
		.st1{fill-rule:evenodd;clip-rule:evenodd;fill:#A61E2F;stroke:#A61E2F;stroke-width:3;stroke-linecap:round;stroke-linejoin:round;stroke-miterlimit:10;}
	.st2{fill:#A61E2F;stroke:#A61E2F;stroke-width:3;stroke-linecap:round;stroke-linejoin:round;stroke-miterlimit:10;}
</style>
<path class="st0" d="M-167-342c0.67,0,1.33,0,2,0C-165.67-342-166.33-342-167-342z"/>
<path class="st0" d="M-206-279c0.33,0.67,0.67,1.33,1,2c-0.67,0-1.33,0-2,0C-206.67-277.67-206.33-278.33-206-279z"/>
<path class="st0" d="M-328,341c1.98,1.64,2.33,4.69,0,9C-328,347-328,344-328,341z"/>
<path class="st0" d="M566,395c0.33,1,0.67,2,1,3c-0.33,0-0.67,0-1,0C566,397,566,396,566,395z"/>
<path class="st0" d="M570,403c0.33,0.67,0.67,1.33,1,2C570.67,404.33,570.33,403.67,570,403z"/>
<path class="st0" d="M-326,406c0.33,0.67,0.67,1.33,1,2C-325.33,407.33-325.67,406.67-326,406z"/>
<path class="st0" d="M571,406c0.33,0.67,0.67,1.33,1,2C571.67,407.33,571.33,406.67,571,406z"/>
<path class="st0" d="M573,414c1,3,2,6,3,9C573.43,420.73,573.19,418.82,573,414z"/>
<path class="st0" d="M577,432c0.67,0,1.33,0,2,0C578.33,432,577.67,432,577,432z"/>
<path class="st0" d="M578,436c2.04,1.8,0.71,0.02,2,3c-0.67,0-1.33,0-2,0C578,438,578,437,578,436z"/>
<path class="st0" d="M580,442c0.33,0.67,0.67,1.33,1,2C580.67,443.33,580.33,442.67,580,442z"/>
<path class="st0" d="M581,447c1,0.33,2,0.67,3,1c0,1,0,2,0,3C583,449.67,582,448.33,581,447z"/>
<path class="st0" d="M-349,463c0.33,0.67,0.67,1.33,1,2C-348.33,464.33-348.67,463.67-349,463z"/>
<path class="st0" d="M-346,471c0.33,0.67,0.67,1.33,1,2C-345.33,472.33-345.67,471.67-346,471z"/>
<path class="st0" d="M-325,534c0.33,0.67,0.67,1.33,1,2C-324.33,535.33-324.67,534.67-325,534z"/>
<path class="st0" d="M-323,539c0.33,0.67,0.67,1.33,1,2C-322.33,540.33-322.67,539.67-323,539z"/>
<path class="st0" d="M576,554c0.33,0.67,0.67,1.33,1,2C576.67,555.33,576.33,554.67,576,554z"/>
<path class="st0" d="M577,559c0.33,0.67,0.67,1.33,1,2C577.67,560.33,577.33,559.67,577,559z"/>
<path class="st0" d="M359,599c0.33,0.67,0.67,1.33,1,2C359.67,600.33,359.33,599.67,359,599z"/>
<path class="st0" d="M553,628c0.33,1,0.67,2,1,3c-0.33,0-0.67,0-1,0c-0.33-0.33-0.67-0.67-1-1C552.33,629.33,552.67,628.67,553,628z
	"/>
<path class="st0" d="M550,639c0.67,1.33,1.33,2.67,2,4c-0.33,0-0.67,0-1,0C550.67,641.67,550.33,640.33,550,639z"/>
<path class="st0" d="M584,640c0.33,0.67,0.67,1.33,1,2C584.67,641.33,584.33,640.67,584,640z"/>
<path class="st0" d="M544,650c0.33,0.67,0.67,1.33,1,2C544.67,651.33,544.33,650.67,544,650z"/>
<path class="st0" d="M579,652c0.33,0.67,0.67,1.33,1,2C579.67,653.33,579.33,652.67,579,652z"/>
<path class="st0" d="M304,655c0.67,0.33,1.33,0.67,2,1c-2,1-4,2-6,3c-0.33-0.33-0.67-0.67-1-1C300.67,657,302.33,656,304,655z"/>
<path class="st0" d="M364,824c0.67,0.67,1.33,1.33,2,2c-0.33,0.33-0.67,0.67-1,1c-0.67-0.33-1.33-0.67-2-1c0-0.33,0-0.67,0-1
	C363.33,824.67,363.67,824.33,364,824z"/>
<path class="st0" d="M38,867c0.67,0,1.33,0,2,0c-0.67,1.33-1.33,2.67-2,4C38,869.67,38,868.33,38,867z"/>
<path class="st0" d="M192,872c2,1.33,4,2.67,6,4c0,1.33,0,2.67,0,4c-3,0.33-6,0.67-9,1c-0.67-0.67-1.33-1.33-2-2
	C190.23,876.2,190.77,877.41,192,872z"/>
<path class="st0" d="M211,874c4.33,0.67,8.67,1.33,13,2c0,0.33,0,0.67,0,1c-8,1-16,2-24,3c2.36-4.69,1.39-3.51,7-3
	C208.38,875.32,209.29,875.25,211,874z"/>
<path class="st0" d="M225,874c1.67,0,3.33,0,5,0c-0.33,1-0.67,2-1,3c-0.33,0-0.67,0-1,0C227,876,226,875,225,874z"/>
<path class="st0" d="M231,874c0.67,0,1.33,0,2,0C232.33,874,231.67,874,231,874z"/>
<path class="st0" d="M152,875c8.91,1.06,14.24-1.84,18,5c0,0.33,0,0.67,0,1c-0.33,0-0.67,0-1,0C159.36,878.7,158.11,882.31,152,875z
	"/>
<path class="st0" d="M179,875c4.63,2.76,6.75,3.56,2,6c-2.82-2.03-4.28,0.5-9-1c0.67,0,1.33,0,2,0
	C175.67,878.33,177.33,876.67,179,875z"/>
<path class="st0" d="M206,882c2.04,1.8,0.71,0.02,2,3c-0.33,0-0.67,0-1,0c-0.67-0.33-1.33-0.67-2-1
	C205.33,883.33,205.67,882.67,206,882z"/>
<g>
	<path class="st1" d="M75.73,43.27c-0.51-4.69-2.68-9.04-3.95-13.58c-2.47-8.83-1.42-18.54,2.86-26.68
		c0.08-0.15,0.16-0.31,0.25-0.45c-6.79,6.57-11.6,15.99-9.75,25.17c1.17,5.8,4.83,10.85,6.41,16.56c1.16,4.18,0.46,8.13,0.48,12.24
		C75.35,53.58,76.18,47.5,75.73,43.27z"/>
	<path class="st1" d="M53.66,71.55c-0.38-3.53-2.02-6.81-2.98-10.25c-1.86-6.66-1.07-14,2.17-20.13c0.06-0.12,0.12-0.23,0.19-0.34
		c-5.13,4.96-8.75,12.07-7.36,18.99c0.89,4.38,3.64,8.19,4.83,12.49c0.88,3.16,0.35,6.13,0.36,9.24
		C53.38,79.34,54.01,74.74,53.66,71.55z"/>
	<path class="st1" d="M106.44,57.44c-0.56-3.84-2.92-7.4-4.31-11.12c-2.7-7.23-1.55-15.2,3.14-21.86c0.09-0.13,0.18-0.25,0.27-0.37
		c-7.43,5.39-12.68,13.1-10.66,20.62c1.28,4.75,5.28,8.89,7,13.56c1.26,3.43,0.51,6.66,0.52,10.04
		C106.02,65.88,106.94,60.89,106.44,57.44z"/>
	<path class="st1" d="M281.93,204.16c-9.13-56.81-85.3-85.3-128.97-45.28c-6.53,4.74-15.69,19.19-24,18.36
		c-9.45-5.82-0.5-18.25-0.43-26.79c-1.4-19.7-16.05-28.5-2.76-51.51c-1.43-0.45-2.88-0.56-4.3-0.39c-5.5,0.64-10.55,5.43-12.13,10.9
		c-4,14.22,8.05,27.57,7.17,41.7c-0.65,10.42-7.93,21.76-1.88,30.38c-6.43,1.31-11.63-5.89-11.75-12.29
		c-0.12-6.41,2.79-12.52,3.3-18.92c1.26-15.48-12.42-32.01-3.87-46.92c-5.43-3.13-12.85,1.02-15.04,6.8
		c-4.41,12.19,6.51,23.64,6.83,35.65c0.31,11.72-9.97,25.26-1.56,35.99c-3.31,3.11-9.38,1.15-11.57-2.81
		c-4.48-8.61,3.24-17.32,4.96-25.66c3.28-16.19-13.44-32.87-6.78-48.04c-5.23-2.65-11.92,1.63-13.65,7.13
		c-3.47,11.52,7.19,21.87,7.29,33.17c0.12,11.61-10.5,22.58-6.77,33.6c-3.92,1.88-8.87-1.18-10.26-5.23
		c-2.81-8.57,4.85-16.2,6.1-24.36c2.1-13.29-12.77-27.61-4.36-40.33c-2.76-3.39-8.67-2.81-11.69,0.36
		c-6.34,7.05-1.47,16.89,0.91,24.64c3.47,12.2,1.14,25.87-6.2,36.3C28.8,167.11,19,157.98,14.84,146.7
		c5.19,80.4,50.22,175.11,144.98,173.57c-75.51,0.61-126.14-73.63-129.33-142.03c35.04,13.59,75.85,12.24,109.86-3.63
		c-22.15,37.59,5.27,92.87,52,89.29c53.24-6.2,61.78-85.09,7.73-86.21c-22.07-0.46-39.8,31.76-18.23,47.13
		c9.48,5.64,24.34,0.41,26.27-10.26c-14.17,16.68-36.14-3.74-23.31-20.48c11.77-14.36,35.19-6.55,41.55,9.19
		c14.94,33.72-23.98,64.34-56.41,49.22c-40.38-17.46-37.26-76.06-1.03-96.57C280.01,105,334.35,281.51,183.41,319.57
		C240.2,313.15,293.34,262.27,281.93,204.16z"/>
	<path class="st2" d="M123.94,314.72c27.54,7.27,57.84,7.16,84.56-3.08c3.82-1.42,7.49-3.17,11.11-4.99l1.13,2.09
		c-22.19,11.4-48.06,14.6-72.76,11.7c-8.23-0.97-16.39-2.5-24.3-4.99L123.94,314.72L123.94,314.72z"/>
	<path class="st2" d="M6.18,101.65l298.29-62.22c10.2-1.74,13.45,12.43,3.29,15.01c0.03,0.01-299.71,56.06-299.74,56.07
		C2.19,111.45,0.18,103.15,6.18,101.65L6.18,101.65z"/>
	<path class="st2" d="M131.01,102.15l181.35-28.2c4.28-0.67,8.32,2.19,9,6.37c0.68,4.18-2.24,8.12-6.53,8.79
		c0.02,0.04-182.45,21.95-182.53,21.98C126.37,111.64,125.04,103.29,131.01,102.15L131.01,102.15z"/>
	<path class="st2" d="M10.8,118.73l22.82-3.79c6.53-0.8,8.06,8.92,1.58,10.11c-0.14,0.02-22.95,2.61-23.1,2.63
		C6.09,128.23,4.87,119.81,10.8,118.73L10.8,118.73z"/>
</g>
</svg>
